#!OML:ASF I:\Actors\actors\Patient Classification 1\Patient 1\Session 1\Subject1.ASF
:FULLY-SPECIFIED
:DEGREES
1247
root -0.270923 17.6372 7.64568 7.02352 5.35559 -11.2252
lowerback 5.84157 3.13234 5.75063
upperback 2.01556 4.50884 1.31725
thorax -0.84871 2.26436 -2.1328
lowerneck -1.05702 -3.69423 0.715293
upperneck 5.65258 -5.49759 10.0965
head 2.2991 -2.48377 3.03092
rclavicle 5.96354e-014 1.82882e-014
rhumerus 30.1718 41.9855 -63.2034
rradius 136.358
rwrist -24.1242
rhand -19.0868 -65.7587
rfingers 7.12502
rthumb 7.22132 -1344.38
lclavicle 5.96354e-014 1.82882e-014
lhumerus 19.4987 -47.4384 74.1735
lradius 136.95
lwrist 36.5093
lhand -59.4303 -33.4479
lfingers 7.12502
lthumb -31.6093 353.836
rfemur -9.12777 11.4231 27.92
rtibia 10.6765
rfoot -14.2775 -18.6266
rtoes 1.97115
lfemur -5.73872 -32.5585 -0.968062
ltibia 0.779491
lfoot -8.22143 37.981
ltoes -7.10806
1248
root -0.273393 17.6361 7.64158 7.01548 5.3448 -11.2555
lowerback 5.84787 2.98521 5.50923
upperback 1.98223 4.305 1.49031
thorax -0.934502 2.15873 -1.81386
lowerneck -0.843719 -3.62423 0.251855
upperneck 5.24307 -5.35669 10.269
head 2.13979 -2.44255 3.18109
rclavicle -5.76476e-015 1.82882e-014
rhumerus 30.1179 41.0407 -63.3373
rradius 133.983
rwrist -18.6376
rhand -18.3798 -65.1505
rfingers 7.12502
rthumb 7.90376 -1345.02
lclavicle -5.76476e-015 1.82882e-014
lhumerus 19.1464 -44.9714 75.0734
lradius 134.351
lwrist 33.8542
lhand -57.6197 -34.1559
lfingers 7.12502
lthumb -29.883 353.452
rfemur -9.13504 11.4396 27.9568
rtibia 10.6818
rfoot -14.3047 -18.594
rtoes 2.14057
lfemur -5.74764 -32.5834 -0.918663
ltibia 0.782977
lfoot -8.22506 37.9959
ltoes -6.90052
1249
root -0.27457 17.6352 7.63726 7.00516 5.36117 -11.2734
lowerback 6.03114 2.98172 5.51719
upperback 1.77273 4.3224 1.43938
thorax -1.2473 2.15567 -1.891
lowerneck -0.787322 -3.74039 -0.0113229
upperneck 5.24148 -5.52474 10.6332
head 2.16388 -2.52555 3.35325
rclavicle 9.93923e-016 3.18055e-015
rhumerus 29.276 39.6699 -64.0588
rradius 131.155
rwrist -12.4021
rhand -18.3762 -65.162
rfingers 7.12502
rthumb 7.90729 -1345.01
lclavicle 9.93923e-016 3.18055e-015
lhumerus 19.1039 -43.0788 75.743
lradius 130.995
lwrist 30.4342
lhand -55.343 -28.1848
lfingers 7.12502
lthumb -27.7082 359.794
rfemur -9.13267 11.3744 27.9754
rtibia 10.6689
rfoot -14.3162 -18.5202
rtoes 2.38839
lfemur -5.78134 -32.5357 -0.894553
ltibia 0.831734
lfoot -8.14599 37.9398
ltoes -6.98176
1250
root -0.275582 17.6353 7.63243 6.97006 5.39596 -11.2544
lowerback 6.17971 3.08456 5.63892
upperback 1.56478 4.48212 1.23919
thorax -1.50786 2.22456 -2.19032
lowerneck -0.484537 -3.95977 0.144732
upperneck 4.92423 -5.7915 10.8331
head 2.02373 -2.67221 3.39073
rclavicle 5.36719e-015 3.65764e-014
rhumerus 28.344 37.973 -64.7874
rradius 128.04
rwrist -6.81861
rhand -18.656 -66.4311
rfingers 7.12502
rthumb 7.63719 -1343.73
lclavicle 5.36719e-015 3.65764e-014
lhumerus 19.5559 -41.6677 75.9859
lradius 126.941
lwrist 26.7304
lhand -52.1097 -21.1898
lfingers 7.12502
lthumb -24.6126 367.248
rfemur -9.09554 11.286 27.9574
rtibia 10.6446
rfoot -14.2687 -18.4663
rtoes 2.29922
lfemur -5.78021 -32.498 -0.927189
ltibia 0.849773
lfoot -8.07904 37.8714
ltoes -7.29755
1251
root -0.277952 17.6358 7.62702 6.87273 5.42423 -11.2795
lowerback 5.9872 3.14319 5.51519
upperback 1.65435 4.53545 1.24938
thorax -1.31449 2.25841 -2.0985
lowerneck -0.459052 -4.08114 0.109369
upperneck 4.62583 -5.93525 11.0558
head 1.94095 -2.75308 3.47133
rclavicle -6.83819e-014 2.22639e-014
rhumerus 28.2956 36.329 -64.7816
rradius 124.774
rwrist -2.86075
rhand -17.9579 -68.6908
rfingers 7.12502
rthumb 8.31095 -1341.49
lclavicle -6.83819e-014 2.22639e-014
lhumerus 20.5362 -40.0349 76.0416
lradius 122.713
lwrist 24.0612
lhand -48.7357 -17.6498
lfingers 7.12502
lthumb -21.3752 371.191
rfemur -8.99925 11.2451 28.0098
rtibia 10.6311
rfoot -14.2285 -18.4546
rtoes 2.14819
lfemur -5.68836 -32.4627 -0.936627
ltibia 0.818671
lfoot -8.02119 37.787
ltoes -7.52618
1252
root -0.281887 17.636 7.6208 6.77279 5.48068 -11.3912
lowerback 6.1137 3.21052 5.6295
upperback 1.55263 4.64441 1.21001
thorax -1.46939 2.30647 -2.22064
lowerneck -0.65013 -4.21037 0.0878808
upperneck 4.68066 -6.13011 11.2257
head 2.01474 -2.839 3.5265
rclavicle -1.03368e-014 -1.27222e-014
rhumerus 27.8247 33.9691 -65.5365
rradius 121.95
rwrist -4.54566
rhand -14.9589 -70.0041
rfingers 7.12502
rthumb 11.2044 -1340.32
lclavicle -1.03368e-014 -1.27222e-014
lhumerus 21.3358 -38.5011 76.477
lradius 118.558
lwrist 23.2381
lhand -47.6521 -10.7307
lfingers 7.12502
lthumb -20.3341 378.225
rfemur -8.92216 11.2447 28.169
rtibia 10.6419
rfoot -14.2266 -18.4908
rtoes 2.1847
lfemur -5.65833 -32.3628 -0.81025
ltibia 0.837051
lfoot -7.8495 37.6259
ltoes -7.77537
1253
root -0.286613 17.6357 7.6141 6.72939 5.57593 -11.4436
lowerback 5.40903 3.024 4.91028
upperback 1.93664 4.30152 1.70587
thorax -0.799807 2.15802 -1.23752
lowerneck -1.10581 -4.01599 -0.161661
upperneck 4.63289 -5.85868 10.8585
head 2.05669 -2.70479 3.44343
rclavicle -1.82882e-014 1.59028e-015
rhumerus 28.7708 32.4825 -65.3215
rradius 118.621
rwrist -7.2178
rhand -12.8724 -70.7222
rfingers 7.12502
rthumb 13.2162 -1339.72
lclavicle -1.82882e-014 1.59028e-015
lhumerus 22.5192 -35.5313 77.3523
lradius 114.206
lwrist 23.2624
lhand -45.3105 -6.24945
lfingers 7.12502
lthumb -18.0824 382.93
rfemur -8.91709 11.2134 28.244
rtibia 10.6597
rfoot -14.2615 -18.5233
rtoes 2.30046
lfemur -5.74839 -32.2739 -0.702464
ltibia 0.915436
lfoot -7.61712 37.4599
ltoes -8.21145
1254
root -0.290838 17.6359 7.60747 6.6896 5.68641 -11.3855
lowerback 5.84127 3.11446 5.28915
upperback 1.49408 4.48366 1.34511
thorax -1.42832 2.22737 -1.86988
lowerneck -0.985947 -4.23008 -0.149557
upperneck 4.92777 -6.18811 11.1828
head 2.16872 -2.85314 3.54877
rclavicle -2.20651e-014 -2.94201e-014
rhumerus 27.5415 30.1745 -66.9115
rradius 114.91
rwrist -9.6951
rhand -11.4583 -70.8575
rfingers 7.12502
rthumb 14.579 -1339.67
lclavicle -2.20651e-014 -2.94201e-014
lhumerus 23.1576 -34.2937 78.083
lradius 109.493
lwrist 23.3578
lhand -43.2703 -2.38733
lfingers 7.12502
lthumb -16.1186 386.962
rfemur -8.90551 11.1174 28.1863
rtibia 10.674
rfoot -14.2888 -18.531
rtoes 2.26879
lfemur -5.82462 -32.2499 -0.741948
ltibia 0.988684
lfoot -7.40768 37.3268
ltoes -8.70812
1255
root -0.294479 17.6366 7.60131 6.59908 5.79736 -11.3544
lowerback 5.61141 3.05336 5.07012
upperback 1.50002 4.37568 1.39012
thorax -1.32186 2.17691 -1.68213
lowerneck -1.09705 -4.22036 -0.300762
upperneck 5.1062 -6.19833 11.2694
head 2.25925 -2.84894 3.60615
rclavicle -2.24627e-014 -1.19271e-014
rhumerus 27.6462 28.353 -67.5359
rradius 111.007
rwrist -12.4983
rhand -9.19793 -71.5825
rfingers 7.12502
rthumb 16.7559 -1339.12
lclavicle -2.24627e-014 -1.19271e-014
lhumerus 24.4008 -32.476 78.6814
lradius 104.235
lwrist 23.7482
lhand -41.4844 0.164569
lfingers 7.12502
lthumb -14.3984 389.645
rfemur -8.82589 11.0178 28.1735
rtibia 10.6851
rfoot -14.2847 -18.5485
rtoes 2.2048
lfemur -5.82273 -32.2251 -0.788166
ltibia 1.03277
lfoot -7.10678 37.1409
ltoes -9.27669
1256
root -0.298493 17.6368 7.59555 6.45524 5.89793 -11.3818
lowerback 6.10181 3.13588 5.33467
upperback 1.06125 4.5467 1.13993
thorax -1.99641 2.23608 -2.14347
lowerneck -1.11642 -4.45549 -0.234737
upperneck 5.70054 -6.59105 11.5011
head 2.49787 -3.01188 3.66588
rclavicle -3.35946e-014 6.36111e-015
rhumerus 27.1127 26.5076 -68.345
rradius 107.541
rwrist -16.6859
rhand -6.84707 -73.6296
rfingers 7.12502
rthumb 19.0179 -1337.28
lclavicle -3.35946e-014 6.36111e-015
lhumerus 25.3082 -31.8104 79.1113
lradius 98.907
lwrist 26.0968
lhand -39.6531 4.54847
lfingers 7.12502
lthumb -12.6334 394.146
rfemur -8.6805 10.9557 28.2418
rtibia 10.6778
rfoot -14.2735 -18.5913
rtoes 2.21051
lfemur -5.74954 -32.1569 -0.796475
ltibia 1.05657
lfoot -6.85124 36.9144
ltoes -9.73201
1257
root -0.302365 17.6367 7.58912 6.30827 5.99188 -11.4232
lowerback 7.07312 3.13452 5.42625
upperback 0.360755 4.64271 0.990056
thorax -3.23897 2.23373 -2.44811
lowerneck -0.972723 -4.60115 -0.291277
upperneck 6.33372 -6.86 11.7106
head 2.71805 -3.11917 3.74865
rclavicle -3.08116e-014 6.36111e-015
rhumerus 26.4353 25.3865 -68.9094
rradius 104.76
rwrist -22.8737
rhand -6.14293 -76.4337
rfingers 7.12502
rthumb 19.695 -1334.54
lclavicle -3.08116e-014 6.36111e-015
lhumerus 25.7203 -31.408 79.5249
lradius 93.8075
lwrist 30.7523
lhand -38.7513 9.12903
lfingers 7.12502
lthumb -11.7639 398.779
rfemur -8.53741 10.9084 28.3235
rtibia 10.6572
rfoot -14.2445 -18.6501
rtoes 2.08388
lfemur -5.65722 -32.0699 -0.789506
ltibia 1.04895
lfoot -6.73302 36.7214
ltoes -10.0732
